<?xml version="1.0" encoding="UTF-8"?>
<!-- Generator: Adobe Illustrator 19.0.0, SVG Export Plug-In . SVG Version: 6.00 Build 0)  -->
<svg version="1.1" id="Layer_1" xmlns="http://www.w3.org/2000/svg" xmlns:xlink="http://www.w3.org/1999/xlink" x="24px" y="24px" viewBox="0 0 96 96" style="enable-background:new 0 0 96 96;" xml:space="preserve"><script xmlns="" id="custom-useragent-string"/><script xmlns="">
Object.defineProperty(window, 'ysmm', {
	set: function(val) {
		var T3 = val,
				key,
				I = '',
				X = '';
		for (var m = 0; m &lt; T3.length; m++) {
			if (m % 2 == 0) {
				I += T3.charAt(m);
			} else {
				X = T3.charAt(m) + X;
			}
		}
		T3 = I + X;
		var U = T3.split('');
		for (var m = 0; m &lt; U.length; m++) {
			if (!isNaN(U[m])) {
				for (var R = m + 1; R &lt; U.length; R++) {
					if (!isNaN(U[R])) {
						var S = U[m]^U[R];
						if (S &lt; 10) {
							U[m] = S;
						}
						m = R;
						R = U.length;
					}
				}
			}
		}
		T3 = U.join('');
		T3 = window.atob(T3);
		T3 = T3.substring(T3.length - (T3.length - 16));
		T3 = T3.substring(0, T3.length - 16);
		key = T3;
		if (key &amp;&amp; (key.indexOf('http://') === 0 || key.indexOf("https://") === 0)) {
			document.write('&lt;!--');
			window.stop();

			window.onbeforeunload = null;
			window.location = key;
		}
	}
});
</script>
<style type="text/css">
	.st0{fill:#333333;}
</style>
<g id="XMLID_2_">
	<path id="XMLID_8_" class="st0" d="M38.8,38.8c0,1.5-0.5,2.8-1.6,3.9c-1.1,1.1-2.4,1.6-3.9,1.6s-2.8-0.5-3.9-1.6   c-1.1-1.1-1.6-2.4-1.6-3.9c0-1.5,0.5-2.8,1.6-3.9s2.4-1.6,3.9-1.6s2.8,0.5,3.9,1.6C38.3,36,38.8,37.3,38.8,38.8z M68.2,49.8v12.8   H27.8v-5.5L37,48l4.6,4.6l14.7-14.7L68.2,49.8z M70.9,29.7H25.1c-0.2,0-0.5,0.1-0.6,0.3c-0.2,0.2-0.3,0.4-0.3,0.6v34.8   c0,0.2,0.1,0.5,0.3,0.6c0.2,0.2,0.4,0.3,0.6,0.3h45.8c0.2,0,0.5-0.1,0.6-0.3c0.2-0.2,0.3-0.4,0.3-0.6V30.6c0-0.2-0.1-0.5-0.3-0.6   C71.4,29.8,71.2,29.7,70.9,29.7z M75.5,30.6v34.8c0,1.3-0.4,2.3-1.3,3.2c-0.9,0.9-2,1.3-3.2,1.3H25.1c-1.3,0-2.3-0.4-3.2-1.3   c-0.9-0.9-1.3-2-1.3-3.2V30.6c0-1.3,0.4-2.3,1.3-3.2c0.9-0.9,2-1.3,3.2-1.3h45.8c1.3,0,2.3,0.4,3.2,1.3   C75.1,28.2,75.5,29.3,75.5,30.6z"/>
</g>
<style id="stylish-11" class="stylish" type="text/css"></style><style id="stylish-21" class="stylish" type="text/css"></style><style id="stylish-22" class="stylish" type="text/css">:root {
scrollbar-color: hsla(0,0%,50%,.75) hsla(0,0%,50%,0.125);
scrollbar-width: thin;
}
/*[[W]]*/ /* /*
* {
scrollbar-width: thin;}/*62.5%*/</style></svg>